G04*
G04 #@! TF.GenerationSoftware,Altium Limited,Altium Designer,22.8.2 (66)*
G04*
G04 Layer_Color=32768*
%FSLAX44Y44*%
%MOMM*%
G71*
G04*
G04 #@! TF.SameCoordinates,1C822ADC-4D7C-47C7-80CC-BC155C960612*
G04*
G04*
G04 #@! TF.FilePolarity,Positive*
G04*
G01*
G75*
%ADD12C,0.1000*%
%ADD50C,0.2540*%
%ADD51C,0.0500*%
D12*
X1625600Y279340D02*
Y284540D01*
X1623000Y281940D02*
X1628200D01*
X1681480Y279340D02*
Y284540D01*
X1678880Y281940D02*
X1684080D01*
X1635760Y382210D02*
Y387410D01*
X1633160Y384810D02*
X1638360D01*
X1675130Y394910D02*
Y400110D01*
X1672530Y397510D02*
X1677730D01*
X1659070Y367880D02*
Y378880D01*
X1683570Y367880D02*
Y378880D01*
X1659070D02*
X1683570D01*
X1659070Y367880D02*
X1683570D01*
X1668570Y373380D02*
X1674070D01*
X1671320Y370630D02*
Y376130D01*
X1629897Y557987D02*
X1640997D01*
Y543887D02*
Y557987D01*
X1629897Y543887D02*
X1640997D01*
X1629897D02*
Y557987D01*
X1625617Y566216D02*
X1635117D01*
X1630367Y561466D02*
Y570967D01*
X1654497Y537957D02*
Y547957D01*
X1649497Y542957D02*
X1659497D01*
X1624260Y525780D02*
X1633760D01*
X1629010Y521030D02*
Y530530D01*
X1631950Y534610D02*
Y539810D01*
X1629350Y537210D02*
X1634550D01*
X1714930Y334700D02*
X1724930D01*
X1719930Y329700D02*
Y339700D01*
X1701800Y267760D02*
Y273260D01*
X1699050Y270510D02*
X1704550D01*
X1689550Y276010D02*
X1714050D01*
X1689550Y265010D02*
X1714050D01*
X1689550D02*
Y276010D01*
X1714050Y265010D02*
Y276010D01*
X1721700Y414240D02*
X1732700D01*
X1721700Y389740D02*
X1732700D01*
Y414240D01*
X1721700Y389740D02*
Y414240D01*
X1727200Y399240D02*
Y404740D01*
X1724450Y401990D02*
X1729950D01*
X1720170Y355540D02*
Y360740D01*
X1717570Y358140D02*
X1722770D01*
X1721700Y367480D02*
X1732700D01*
X1721700Y391980D02*
X1732700D01*
X1721700Y367480D02*
Y391980D01*
X1732700Y367480D02*
Y391980D01*
X1727200Y376980D02*
Y382480D01*
X1724450Y379730D02*
X1729950D01*
X1639510Y276860D02*
X1644710D01*
X1642110Y274260D02*
Y279460D01*
X1618310Y270510D02*
X1627810D01*
X1623060Y265760D02*
Y275260D01*
X1689040Y391840D02*
X1694240D01*
X1691640Y389240D02*
Y394440D01*
X1690520Y265010D02*
Y276010D01*
X1666020Y265010D02*
Y276010D01*
Y265010D02*
X1690520D01*
X1666020Y276010D02*
X1690520D01*
X1675520Y270510D02*
X1681020D01*
X1678270Y267760D02*
Y273260D01*
X1701800Y257600D02*
Y263100D01*
X1699050Y260350D02*
X1704550D01*
X1689550Y265850D02*
X1714050D01*
X1689550Y254850D02*
X1714050D01*
X1689550D02*
Y265850D01*
X1714050Y254850D02*
Y265850D01*
D50*
X1573530Y254000D02*
Y591820D01*
Y254000D02*
X1741170D01*
Y591820D01*
X1573530D02*
X1741170D01*
D51*
X1572300Y250760D02*
Y595060D01*
Y250760D02*
X1742400D01*
Y595060D01*
X1572300D02*
X1742400D01*
X1678110Y517410D02*
Y582410D01*
Y517410D02*
X1733110D01*
Y582410D01*
X1678110D02*
X1733110D01*
X1616100Y286940D02*
X1635100D01*
X1616100Y276940D02*
X1635100D01*
X1616100D02*
Y286940D01*
X1635100Y276940D02*
Y286940D01*
X1671980Y276940D02*
X1690980D01*
X1671980Y286940D02*
X1690980D01*
Y276940D02*
Y286940D01*
X1671980Y276940D02*
Y286940D01*
X1626260Y389810D02*
X1645260D01*
X1626260Y379810D02*
X1645260D01*
X1626260D02*
Y389810D01*
X1645260Y379810D02*
Y389810D01*
X1665630Y392510D02*
X1684630D01*
X1665630Y402510D02*
X1684630D01*
Y392510D02*
Y402510D01*
X1665630Y392510D02*
Y402510D01*
X1616867Y558717D02*
Y573716D01*
X1643867Y558717D02*
Y573716D01*
X1616867D02*
X1643867D01*
X1616867Y558717D02*
X1643867D01*
X1642997Y557957D02*
X1665997D01*
X1642997Y527957D02*
X1665997D01*
Y557957D01*
X1642997Y527957D02*
Y557957D01*
X1615510Y518280D02*
Y533280D01*
X1642510Y518280D02*
Y533280D01*
X1615510D02*
X1642510D01*
X1615510Y518280D02*
X1642510D01*
X1622450Y532210D02*
X1641450D01*
X1622450Y542210D02*
X1641450D01*
Y532210D02*
Y542210D01*
X1622450Y532210D02*
Y542210D01*
X1708930Y317700D02*
Y351700D01*
X1730930Y317700D02*
Y351700D01*
X1708930D02*
X1730930D01*
X1708930Y317700D02*
X1730930D01*
X1710670Y363140D02*
X1729670D01*
X1710670Y353140D02*
X1729670D01*
X1710670D02*
Y363140D01*
X1729670Y353140D02*
Y363140D01*
X1637110Y267360D02*
Y286360D01*
X1647110Y267360D02*
Y286360D01*
X1637110Y267360D02*
X1647110D01*
X1637110Y286360D02*
X1647110D01*
X1636560Y263010D02*
Y278010D01*
X1609560Y263010D02*
Y278010D01*
Y263010D02*
X1636560D01*
X1609560Y278010D02*
X1636560D01*
X1696640Y382340D02*
Y401340D01*
X1686640Y382340D02*
Y401340D01*
X1696640D01*
X1686640Y382340D02*
X1696640D01*
M02*
