G04*
G04 #@! TF.GenerationSoftware,Altium Limited,Altium Designer,22.8.2 (66)*
G04*
G04 Layer_Color=8421504*
%FSLAX44Y44*%
%MOMM*%
G71*
G04*
G04 #@! TF.SameCoordinates,1C822ADC-4D7C-47C7-80CC-BC155C960612*
G04*
G04*
G04 #@! TF.FilePolarity,Positive*
G04*
G01*
G75*
%ADD13R,0.5600X2.4000*%
%ADD14R,0.3500X0.3500*%
%ADD15R,0.3000X0.3500*%
%ADD16R,0.3500X0.3000*%
%ADD17R,0.6000X0.6000*%
%ADD18R,0.4300X0.4300*%
%ADD19R,0.6000X0.6400*%
%ADD20R,0.7000X0.2700*%
%ADD21R,0.6500X1.4500*%
%ADD22R,0.7500X0.6000*%
%ADD23C,0.2500*%
%ADD24R,0.9000X1.0000*%
%ADD25R,1.6000X0.6500*%
%ADD26R,0.8000X0.5000*%
%ADD27R,0.7000X0.4000*%
%ADD28R,0.6000X0.7500*%
%ADD29R,0.5000X0.3000*%
%ADD30R,0.6400X0.6000*%
D13*
X1685610Y531910D02*
D03*
Y567910D02*
D03*
X1695610Y531910D02*
D03*
Y567910D02*
D03*
X1705610Y531910D02*
D03*
Y567910D02*
D03*
X1715610Y531910D02*
D03*
Y567910D02*
D03*
X1725610Y531910D02*
D03*
Y567910D02*
D03*
D14*
X1610470Y295330D02*
D03*
Y358830D02*
D03*
X1682970Y295330D02*
D03*
Y358830D02*
D03*
D15*
X1615220Y295330D02*
D03*
X1619720D02*
D03*
X1624220D02*
D03*
X1628720D02*
D03*
X1633220D02*
D03*
X1637720D02*
D03*
X1642220D02*
D03*
X1646720D02*
D03*
X1651220D02*
D03*
X1655720D02*
D03*
X1660220D02*
D03*
X1664720D02*
D03*
X1669220D02*
D03*
X1673720D02*
D03*
X1678220D02*
D03*
Y358830D02*
D03*
X1673720D02*
D03*
X1669220D02*
D03*
X1664720D02*
D03*
X1660220D02*
D03*
X1655720D02*
D03*
X1651220D02*
D03*
X1646720D02*
D03*
X1642220D02*
D03*
X1637720D02*
D03*
X1633220D02*
D03*
X1628720D02*
D03*
X1624220D02*
D03*
X1619720D02*
D03*
X1615220D02*
D03*
D16*
X1682970Y300080D02*
D03*
Y304580D02*
D03*
Y309080D02*
D03*
Y313580D02*
D03*
Y318080D02*
D03*
Y322580D02*
D03*
Y327080D02*
D03*
Y331580D02*
D03*
Y336080D02*
D03*
Y340580D02*
D03*
Y345080D02*
D03*
Y349580D02*
D03*
Y354080D02*
D03*
X1610470D02*
D03*
Y349580D02*
D03*
Y345080D02*
D03*
Y340580D02*
D03*
Y336080D02*
D03*
Y331580D02*
D03*
Y327080D02*
D03*
Y322580D02*
D03*
Y318080D02*
D03*
Y313580D02*
D03*
Y309080D02*
D03*
Y304580D02*
D03*
Y300080D02*
D03*
D17*
X1624220Y313580D02*
D03*
X1633220D02*
D03*
X1642220D02*
D03*
X1651220D02*
D03*
X1660220D02*
D03*
X1669220D02*
D03*
Y340580D02*
D03*
X1660220D02*
D03*
X1651220D02*
D03*
X1642220D02*
D03*
X1633220D02*
D03*
X1624220D02*
D03*
X1669220Y322580D02*
D03*
Y331580D02*
D03*
X1624220D02*
D03*
Y322580D02*
D03*
X1633220D02*
D03*
X1642220D02*
D03*
X1651220D02*
D03*
X1660220D02*
D03*
Y331580D02*
D03*
X1651220D02*
D03*
X1642220D02*
D03*
X1633220D02*
D03*
D18*
X1580870Y296580D02*
D03*
Y357580D02*
D03*
D19*
X1621200Y281940D02*
D03*
X1630000D02*
D03*
X1685880D02*
D03*
X1677080D02*
D03*
X1631360Y384810D02*
D03*
X1640160D02*
D03*
X1679530Y397510D02*
D03*
X1670730D02*
D03*
X1636350Y537210D02*
D03*
X1627550D02*
D03*
X1715770Y358140D02*
D03*
X1724570D02*
D03*
D20*
X1626860Y409090D02*
D03*
Y402590D02*
D03*
Y396090D02*
D03*
X1644660D02*
D03*
Y402590D02*
D03*
Y409090D02*
D03*
D21*
X1635760Y402590D02*
D03*
D22*
X1665570Y373380D02*
D03*
X1677070D02*
D03*
X1696050Y270510D02*
D03*
X1707550D02*
D03*
X1684020D02*
D03*
X1672520D02*
D03*
X1696050Y260350D02*
D03*
X1707550D02*
D03*
D23*
X1632327Y555936D02*
D03*
X1638567D02*
D03*
X1635447Y553437D02*
D03*
X1632327Y550937D02*
D03*
X1638567D02*
D03*
X1635447Y548436D02*
D03*
X1632327Y545936D02*
D03*
X1638567D02*
D03*
D24*
X1623617Y566216D02*
D03*
X1637117D02*
D03*
X1622260Y525780D02*
D03*
X1635760D02*
D03*
X1629810Y270510D02*
D03*
X1616310D02*
D03*
D25*
X1654497Y549706D02*
D03*
Y536207D02*
D03*
D26*
X1713930Y321200D02*
D03*
Y330200D02*
D03*
Y339200D02*
D03*
Y348200D02*
D03*
X1725930D02*
D03*
Y339200D02*
D03*
Y330200D02*
D03*
Y321200D02*
D03*
D27*
X1719430Y259390D02*
D03*
X1732430D02*
D03*
Y266390D02*
D03*
X1719430D02*
D03*
D28*
X1727200Y407740D02*
D03*
Y396240D02*
D03*
Y373980D02*
D03*
Y385480D02*
D03*
D29*
X1716420Y396430D02*
D03*
Y388430D02*
D03*
X1702420Y396430D02*
D03*
Y388430D02*
D03*
D30*
X1642110Y272460D02*
D03*
Y281260D02*
D03*
X1691640Y396240D02*
D03*
Y387440D02*
D03*
M02*
