M48
;Layer_Color=9474304
;FILE_FORMAT=4:4
METRIC,LZ
;TYPE=PLATED
T1F00S00C0.2000
T2F00S00C1.1900
;TYPE=NON_PLATED
T3F00S00C0.8000
T4F00S00C2.3600
%
T01
X01586865Y0037338
X01580642Y00385826
X01593088
X01605534
X01611757Y0037338
X01599311
X01593088Y00360934
X0161798Y00336042
X0163322Y0033158
X01636649Y00348488
X01649095
X01661541
X01673987
X016891Y0033655
Y003302
X01692656Y0031115
X01692431Y0028896
X0169291Y0028321
X0169672Y0027686
X01705102Y00286258
X01717548
X01729994
X01736217Y00298704
X01723771
X0172593Y0031496
X0171323
X01736217Y00323596
Y00348488
X0173482Y0037338
X0171069Y0038989
Y0039566
X0170815Y0035814
X01701764Y00348488
X0170561Y0033909
X0167005Y0030099
X0165608
X0164592
X01640173Y00300468
X0164084Y0028956
X0163322
X016489Y0028785
X01660923Y00290593
X01655318Y00261366
X01642872
X01630426
X0161798
X0161417Y0028194
X0161163Y0028956
X0161798Y0030353
X0161544Y003175
X01636649Y0037338
X0163195Y0037846
X01649095Y0037338
X0165608Y0037211
X01655318Y00385826
X01667764
Y00261366
X0168021
X0168783Y0026035
X01723771Y00273812
X01736217
Y00398272
X0173482Y0040767
X01709467Y00425023
X01699605Y00423164
X01705102Y0043561
X01717548
X01711325Y00448056
X01701764
X01705102Y00460502
X01717548
X01711325Y00472948
X01700903
X01705102Y00485394
X01717548
X01711325Y0049784
X01699605
Y0051562
X01691295Y00510286
X01667764
X01655318
X01642872
X01630426
X0161798
X01605534
X01593088
X01599311Y0049784
X01611757
X01624203
X01636649
X01649095
X01661541
X01673987
X01667764Y00485394
X01655318
X01642872
X01630426
X0161798
X01605534
X01593088
X01599311Y00472948
X01611757
X01624203
X01636649
X01649095
X01661541
X01673987
X01667764Y00460502
X01655318
X01642872
X01630426
X0161798
X01605534
X01593088
X01599311Y00448056
X01611757
X01624203
X01636649
X01649095
X01661541
X01673987
X01667764Y0043561
X01655318
X01642872
X01630426
X0161798
X01605534
X01593088
X01599311Y00423164
X01611757
X01624203
X0162687Y0041529
X0161798Y00410718
Y0040259
X01611757Y00398272
X01599311
X01605534Y00410718
X01593088
X01636649Y00423164
X01649095
X0164465Y0041529
X01661541Y00423164
X01673987
X01691295Y0043561
Y00460502
X01690434Y00485394
X01673987Y00522732
X01667764Y00535178
X0165608Y0052959
X0165354Y0052451
X0164719Y0052324
X0164846Y0052832
X0161798Y00535178
X01605534
X01593088
X01599311Y00522732
X01611757
Y00547624
X01624203
X01599311
X01605534Y0056007
X01611757Y00572516
X01673987
X01667764Y0056007
X01673987Y00547624
X0169545Y005842
X0170561
X0171577
X0172593
X01736217Y00572516
Y00547624
X0171577Y0051562
X01691295Y0040386
X01661541Y00398272
X01586865
X01580642Y00410718
X01586865Y00423164
X01580642Y0043561
X01586865Y00448056
X01580642Y00460502
X01586865Y00472948
X01580642Y00485394
X01586865Y0049784
X01580642Y00510286
X01586865Y00522732
X01580642Y00535178
X01586865Y00547624
T02
X0165735Y0027561
Y0057021
T03
X0169061Y0054991
X0172061
T04
X0158615Y0057021
M30
