G04*
G04 #@! TF.GenerationSoftware,Altium Limited,Altium Designer,22.8.2 (66)*
G04*
G04 Layer_Physical_Order=1*
G04 Layer_Color=255*
%FSLAX44Y44*%
%MOMM*%
G71*
G04*
G04 #@! TF.SameCoordinates,1C822ADC-4D7C-47C7-80CC-BC155C960612*
G04*
G04*
G04 #@! TF.FilePolarity,Positive*
G04*
G01*
G75*
%ADD13R,0.5600X2.4000*%
%ADD14R,0.3500X0.3500*%
%ADD15R,0.3000X0.3500*%
%ADD16R,0.3500X0.3000*%
%ADD17R,0.6000X0.6000*%
%ADD18R,0.4300X0.4300*%
%ADD19R,0.6000X0.6400*%
%ADD20R,0.7000X0.2700*%
%ADD21R,0.6500X1.4500*%
%ADD22R,0.7500X0.6000*%
%ADD23C,0.2500*%
%ADD24R,0.9000X1.0000*%
%ADD25R,1.6000X0.6500*%
%ADD26R,0.8000X0.5000*%
%ADD27R,0.7000X0.4000*%
%ADD28R,0.6000X0.7500*%
%ADD29R,0.5000X0.3000*%
%ADD30R,0.6400X0.6000*%
%ADD43C,0.1270*%
%ADD44C,0.3048*%
%ADD45C,0.0889*%
%ADD46C,2.3600*%
%ADD47C,1.7850*%
%ADD48C,0.8000*%
%ADD49C,0.4500*%
G36*
X1739131Y409779D02*
X1737861Y409527D01*
X1737804Y409664D01*
X1736814Y410654D01*
X1735520Y411190D01*
X1734120D01*
X1732826Y410654D01*
X1732359Y410187D01*
X1731089Y410218D01*
Y412379D01*
X1723311D01*
Y403101D01*
X1731089D01*
Y405023D01*
X1732359Y405153D01*
X1732826Y404686D01*
X1734120Y404150D01*
X1735520D01*
X1736814Y404686D01*
X1737804Y405676D01*
X1737861Y405813D01*
X1739131Y405561D01*
Y375489D01*
X1737861Y375237D01*
X1737804Y375374D01*
X1736814Y376364D01*
X1735520Y376900D01*
X1734120D01*
X1732826Y376364D01*
X1732580Y376118D01*
X1731089D01*
Y378619D01*
X1723311D01*
Y369341D01*
X1731089D01*
Y370390D01*
X1732359Y370863D01*
X1732826Y370396D01*
X1734120Y369860D01*
X1735520D01*
X1736814Y370396D01*
X1737804Y371386D01*
X1737861Y371523D01*
X1739131Y371271D01*
Y256039D01*
X1724898D01*
X1723819Y256501D01*
X1723819Y257309D01*
Y262231D01*
X1723819Y262279D01*
Y263501D01*
X1723819Y263549D01*
Y269279D01*
X1717374D01*
X1714977Y271676D01*
X1713810Y272160D01*
X1712189D01*
Y274399D01*
X1702911D01*
Y266621D01*
X1712189D01*
Y268058D01*
X1713459Y268528D01*
X1715041Y266946D01*
Y263549D01*
X1715041Y263501D01*
Y262279D01*
X1713867Y262000D01*
X1712189D01*
Y264239D01*
X1702911D01*
X1702911Y256461D01*
X1701816Y256039D01*
X1701784D01*
X1700689Y256461D01*
X1700689Y257309D01*
Y264239D01*
X1691411D01*
Y263543D01*
X1690141Y263017D01*
X1689824Y263334D01*
X1688530Y263870D01*
X1687130D01*
X1685836Y263334D01*
X1684846Y262344D01*
X1684310Y261050D01*
Y259650D01*
X1684846Y258356D01*
X1685836Y257366D01*
X1685973Y257309D01*
X1685721Y256039D01*
X1607820D01*
Y286596D01*
X1609090Y287122D01*
X1609636Y286576D01*
X1610930Y286040D01*
X1611633D01*
X1611897Y285496D01*
X1612022Y284770D01*
X1611186Y283934D01*
X1610650Y282640D01*
Y281240D01*
X1611186Y279946D01*
X1612176Y278956D01*
X1613470Y278420D01*
X1614870D01*
X1615556Y278704D01*
X1616826Y277958D01*
Y276399D01*
X1610921D01*
Y264621D01*
X1621699D01*
Y273249D01*
X1621746Y273486D01*
Y277851D01*
X1625089D01*
Y282550D01*
X1625960Y283421D01*
X1626249Y283854D01*
X1626493Y284219D01*
X1626493Y284219D01*
X1626493Y284219D01*
X1626587Y284692D01*
X1626680Y285160D01*
Y295330D01*
X1626609Y295688D01*
Y297969D01*
X1607831Y297969D01*
X1607820Y299234D01*
Y314426D01*
X1607831Y315691D01*
X1609090Y315691D01*
X1612379D01*
X1612456Y315506D01*
X1613446Y314516D01*
X1614740Y313980D01*
X1616140D01*
X1617434Y314516D01*
X1618424Y315506D01*
X1618960Y316800D01*
Y318200D01*
X1618424Y319494D01*
X1617434Y320484D01*
X1616140Y321020D01*
X1614740D01*
X1614379Y320871D01*
X1613109Y321719D01*
Y329191D01*
Y338191D01*
Y347191D01*
Y356191D01*
X1679454D01*
X1680331Y356191D01*
X1680331Y355314D01*
Y342691D01*
Y333691D01*
Y324691D01*
Y315691D01*
Y306691D01*
Y293290D01*
X1677229D01*
X1677005Y293440D01*
X1676907Y293459D01*
X1676204Y294162D01*
Y295306D01*
X1676202Y295319D01*
X1676204Y295332D01*
X1676109Y295787D01*
Y297969D01*
X1673803D01*
X1673493Y298383D01*
X1673135Y299239D01*
X1673570Y300290D01*
Y301690D01*
X1673034Y302984D01*
X1672044Y303974D01*
X1670750Y304510D01*
X1669350D01*
X1668056Y303974D01*
X1667066Y302984D01*
X1666530Y301690D01*
Y300290D01*
X1666965Y299239D01*
X1666607Y298383D01*
X1666297Y297969D01*
X1659833D01*
X1659523Y298383D01*
X1659165Y299239D01*
X1659600Y300290D01*
Y301690D01*
X1659064Y302984D01*
X1658074Y303974D01*
X1656780Y304510D01*
X1655380D01*
X1654086Y303974D01*
X1653096Y302984D01*
X1652560Y301690D01*
Y300290D01*
X1652995Y299239D01*
X1652637Y298383D01*
X1652327Y297969D01*
X1649673D01*
X1649363Y298383D01*
X1649005Y299239D01*
X1649440Y300290D01*
Y301690D01*
X1648904Y302984D01*
X1647914Y303974D01*
X1646620Y304510D01*
X1645220D01*
X1643926Y303974D01*
X1642936Y302984D01*
X1642262Y303358D01*
X1642167Y303452D01*
X1640874Y303988D01*
X1639473D01*
X1638180Y303452D01*
X1637189Y302462D01*
X1636653Y301168D01*
Y299768D01*
X1636873Y299239D01*
X1636036Y297969D01*
X1630831D01*
Y295688D01*
X1630760Y295330D01*
Y292078D01*
X1630236Y291554D01*
X1629700Y290260D01*
Y288860D01*
X1630236Y287566D01*
X1631226Y286576D01*
X1632520Y286040D01*
X1633920D01*
X1635214Y286576D01*
X1636204Y287566D01*
X1636343Y287901D01*
X1637717D01*
X1637856Y287566D01*
X1638846Y286576D01*
X1639225Y286419D01*
X1638973Y285149D01*
X1638021D01*
Y277371D01*
X1646199D01*
Y282816D01*
X1647856Y284473D01*
X1648200Y284330D01*
X1649600D01*
X1650894Y284866D01*
X1651884Y285856D01*
X1652420Y287150D01*
Y288550D01*
X1652277Y288895D01*
X1652386Y289004D01*
X1652870Y290170D01*
Y292691D01*
X1656608D01*
X1657456Y291421D01*
X1657403Y291293D01*
Y289893D01*
X1657939Y288599D01*
X1658929Y287609D01*
X1660223Y287073D01*
X1661623D01*
X1662238Y287328D01*
X1663057Y287460D01*
X1663771Y286693D01*
X1663912Y286353D01*
X1670870Y279394D01*
Y274399D01*
X1667881D01*
Y266621D01*
X1677159D01*
Y274399D01*
X1674169D01*
Y280078D01*
X1673686Y281244D01*
X1666728Y288203D01*
Y292691D01*
X1671374D01*
X1671471Y292202D01*
X1671471Y292202D01*
X1671471Y292202D01*
X1671706Y291851D01*
X1672004Y291404D01*
X1673980Y289427D01*
X1673981Y289427D01*
X1673981Y289427D01*
X1674377Y289162D01*
X1674778Y288894D01*
X1674779Y288894D01*
X1674779Y288894D01*
X1675029Y288844D01*
X1675459Y288557D01*
X1676400Y288370D01*
X1683419D01*
Y286029D01*
X1681991D01*
Y277851D01*
X1689769D01*
Y279582D01*
X1690435Y279956D01*
X1691039Y280175D01*
X1692210Y279690D01*
X1692812D01*
X1692998Y279522D01*
X1693556Y278420D01*
X1693200Y277560D01*
Y276160D01*
X1693403Y275669D01*
X1692555Y274399D01*
X1691411D01*
Y266621D01*
X1700689D01*
Y274399D01*
X1700689D01*
X1700037Y275669D01*
X1700240Y276160D01*
Y277560D01*
X1699704Y278854D01*
X1698714Y279844D01*
X1697420Y280380D01*
X1696818D01*
X1696632Y280548D01*
X1696074Y281650D01*
X1696430Y282510D01*
Y283910D01*
X1695894Y285204D01*
X1694904Y286194D01*
X1693610Y286730D01*
X1692210D01*
X1690963Y286213D01*
X1689769Y286029D01*
X1689769Y286029D01*
X1689769Y286029D01*
X1688340D01*
Y292420D01*
X1688340Y292420D01*
X1688340Y292420D01*
X1688244Y292904D01*
X1688153Y293361D01*
X1688153Y293362D01*
X1688153Y293362D01*
X1687873Y293780D01*
X1687619Y294160D01*
X1685609Y296170D01*
Y306691D01*
Y315691D01*
Y326917D01*
X1686879Y327443D01*
X1687106Y327216D01*
X1688400Y326680D01*
X1689800D01*
X1691094Y327216D01*
X1692084Y328206D01*
X1692620Y329500D01*
Y330900D01*
X1692084Y332194D01*
X1691733Y332545D01*
X1691213Y333375D01*
X1691733Y334205D01*
X1692084Y334556D01*
X1692620Y335850D01*
Y337250D01*
X1692084Y338544D01*
X1691094Y339534D01*
X1689800Y340070D01*
X1688400D01*
X1687106Y339534D01*
X1686879Y339307D01*
X1685609Y339833D01*
Y347191D01*
Y356469D01*
X1681486D01*
X1680609Y356469D01*
X1680609Y357346D01*
Y361469D01*
X1679870D01*
Y369491D01*
X1681709D01*
Y377269D01*
X1672431D01*
Y369491D01*
X1676571D01*
Y361469D01*
X1607831D01*
Y356865D01*
X1607825Y356187D01*
X1606806Y355600D01*
X1575569D01*
Y558909D01*
X1576742Y559395D01*
X1577370Y558767D01*
X1580631Y556885D01*
X1584268Y555910D01*
X1588033D01*
X1591670Y556885D01*
X1594931Y558767D01*
X1597593Y561430D01*
X1599476Y564691D01*
X1600450Y568328D01*
Y572093D01*
X1599476Y575730D01*
X1597593Y578991D01*
X1594931Y581653D01*
X1591670Y583536D01*
X1588033Y584510D01*
X1584268D01*
X1580631Y583536D01*
X1577370Y581653D01*
X1576742Y581026D01*
X1575569Y581512D01*
Y589781D01*
X1739131D01*
Y409779D01*
D02*
G37*
%LPC*%
G36*
X1726630Y587720D02*
X1725230D01*
X1723936Y587184D01*
X1722946Y586194D01*
X1722410Y584900D01*
Y583500D01*
X1722946Y582206D01*
X1723083Y582069D01*
X1722762Y580799D01*
X1721921D01*
Y556759D01*
X1721466Y556410D01*
X1719754D01*
X1719299Y556759D01*
Y580799D01*
X1719143D01*
X1718617Y582069D01*
X1718754Y582206D01*
X1719290Y583500D01*
Y584900D01*
X1718754Y586194D01*
X1717764Y587184D01*
X1716470Y587720D01*
X1715070D01*
X1713776Y587184D01*
X1712786Y586194D01*
X1712250Y584900D01*
Y583500D01*
X1712786Y582206D01*
X1712923Y582069D01*
X1712397Y580799D01*
X1711921D01*
Y555021D01*
X1714941D01*
X1715322Y553751D01*
X1714553Y552419D01*
X1714110Y550766D01*
Y549054D01*
X1714553Y547401D01*
X1715322Y546069D01*
X1714941Y544799D01*
X1711921D01*
Y519021D01*
X1712397D01*
X1712923Y517751D01*
X1712786Y517614D01*
X1712250Y516320D01*
Y514920D01*
X1712786Y513626D01*
X1713776Y512636D01*
X1715070Y512100D01*
X1716470D01*
X1717764Y512636D01*
X1718754Y513626D01*
X1719290Y514920D01*
Y516320D01*
X1718754Y517614D01*
X1718617Y517751D01*
X1719143Y519021D01*
X1719299D01*
Y543060D01*
X1719754Y543410D01*
X1721466D01*
X1723119Y543853D01*
X1724601Y544709D01*
X1725811Y545919D01*
X1726667Y547401D01*
X1727110Y549054D01*
Y550766D01*
X1726667Y552419D01*
X1725898Y553751D01*
X1726279Y555021D01*
X1729299D01*
Y580799D01*
X1729299D01*
X1728777Y582069D01*
X1728914Y582206D01*
X1729450Y583500D01*
Y584900D01*
X1728914Y586194D01*
X1727924Y587184D01*
X1726630Y587720D01*
D02*
G37*
G36*
X1696150D02*
X1694750D01*
X1693456Y587184D01*
X1692466Y586194D01*
X1691930Y584900D01*
Y583500D01*
X1692466Y582206D01*
X1692603Y582069D01*
X1692077Y580799D01*
X1691921D01*
Y556759D01*
X1691465Y556410D01*
X1689754D01*
X1689299Y556759D01*
Y580799D01*
X1681921D01*
Y555021D01*
X1684940D01*
X1685322Y553751D01*
X1684553Y552419D01*
X1684110Y550766D01*
Y549054D01*
X1684553Y547401D01*
X1685322Y546069D01*
X1684940Y544799D01*
X1681921D01*
Y519021D01*
X1689299D01*
Y543061D01*
X1689754Y543410D01*
X1691465D01*
X1691921Y543060D01*
Y519021D01*
X1693800D01*
Y518005D01*
X1694284Y516839D01*
X1696050Y515072D01*
X1696085Y515057D01*
Y514920D01*
X1696621Y513626D01*
X1697611Y512636D01*
X1698905Y512100D01*
X1700305D01*
X1701599Y512636D01*
X1702589Y513626D01*
X1703125Y514920D01*
Y516320D01*
X1702589Y517614D01*
X1702452Y517751D01*
X1702978Y519021D01*
X1709299D01*
Y544799D01*
X1701921D01*
Y519845D01*
X1700663Y518992D01*
X1700305Y519140D01*
X1699299D01*
Y544799D01*
X1696279D01*
X1695898Y546069D01*
X1696667Y547401D01*
X1697110Y549054D01*
Y550766D01*
X1696667Y552419D01*
X1695898Y553751D01*
X1696279Y555021D01*
X1699299D01*
Y580799D01*
X1698823D01*
X1698297Y582069D01*
X1698434Y582206D01*
X1698970Y583500D01*
Y584900D01*
X1698434Y586194D01*
X1697444Y587184D01*
X1696150Y587720D01*
D02*
G37*
G36*
X1706310D02*
X1704910D01*
X1703616Y587184D01*
X1702626Y586194D01*
X1702090Y584900D01*
Y583500D01*
X1702626Y582206D01*
X1702763Y582069D01*
X1702237Y580799D01*
X1701921D01*
Y555021D01*
X1709299D01*
Y580799D01*
X1708983D01*
X1708457Y582069D01*
X1708594Y582206D01*
X1709130Y583500D01*
Y584900D01*
X1708594Y586194D01*
X1707604Y587184D01*
X1706310Y587720D01*
D02*
G37*
G36*
X1661415Y580986D02*
X1639647D01*
X1638966Y580704D01*
X1631048Y572786D01*
X1630766Y572105D01*
Y560327D01*
X1631048Y559647D01*
X1634059Y556635D01*
Y555974D01*
X1632628Y554542D01*
X1632346Y553862D01*
Y553011D01*
X1632628Y552331D01*
X1634341Y550617D01*
X1635022Y550335D01*
X1635828Y550255D01*
X1635993Y549953D01*
X1636142Y549644D01*
X1636169Y549634D01*
X1636183Y549609D01*
X1636911Y549027D01*
X1636944Y547374D01*
X1635736Y546167D01*
X1635211Y546247D01*
X1634369Y546596D01*
X1634140Y547148D01*
X1633539Y547750D01*
X1632752Y548075D01*
X1631902D01*
X1631115Y547750D01*
X1630514Y547148D01*
X1630188Y546362D01*
Y545511D01*
X1630514Y544725D01*
X1631115Y544123D01*
X1631667Y543894D01*
X1631838Y543714D01*
X1632132Y543154D01*
X1632356Y542527D01*
X1632258Y542290D01*
Y535069D01*
X1630000Y532810D01*
X1629718Y532130D01*
Y520700D01*
X1630000Y520020D01*
X1630680Y519738D01*
X1646447D01*
X1646490Y519720D01*
X1647890D01*
X1647933Y519738D01*
X1657350D01*
X1658030Y520020D01*
X1663110Y525100D01*
X1663392Y525780D01*
Y539750D01*
X1663386Y539765D01*
Y540346D01*
X1663145D01*
X1663110Y540430D01*
X1662430Y540712D01*
X1647589D01*
X1644336Y543964D01*
X1644822Y545138D01*
X1662430D01*
X1663110Y545420D01*
X1663258Y545567D01*
X1663386D01*
Y545695D01*
X1664380Y546690D01*
X1664662Y547370D01*
Y553720D01*
X1664380Y554400D01*
X1663700Y554682D01*
X1642897D01*
X1642411Y555856D01*
X1645990Y559434D01*
X1661415D01*
X1662095Y559716D01*
X1667844Y565465D01*
X1668126Y566145D01*
Y574275D01*
X1667844Y574955D01*
X1662095Y580704D01*
X1661415Y580986D01*
D02*
G37*
G36*
X1645350Y418810D02*
X1643950D01*
X1642656Y418274D01*
X1641666Y417284D01*
X1641130Y415990D01*
Y414590D01*
X1641666Y413296D01*
X1642363Y412599D01*
X1641949Y411329D01*
X1640271D01*
Y406851D01*
X1649049D01*
Y411329D01*
X1647351D01*
X1646937Y412599D01*
X1647634Y413296D01*
X1648170Y414590D01*
Y415990D01*
X1647634Y417284D01*
X1646644Y418274D01*
X1645350Y418810D01*
D02*
G37*
G36*
X1627570D02*
X1626170D01*
X1624876Y418274D01*
X1623886Y417284D01*
X1623350Y415990D01*
Y414590D01*
X1623886Y413296D01*
X1624583Y412599D01*
X1624169Y411329D01*
X1622471D01*
Y406851D01*
X1631249D01*
Y411329D01*
X1629571D01*
X1629157Y412599D01*
X1629854Y413296D01*
X1630390Y414590D01*
Y415990D01*
X1629854Y417284D01*
X1628864Y418274D01*
X1627570Y418810D01*
D02*
G37*
G36*
X1618680Y406110D02*
X1617280D01*
X1615986Y405574D01*
X1614996Y404584D01*
X1614460Y403290D01*
Y401890D01*
X1614996Y400596D01*
X1615986Y399606D01*
X1617280Y399070D01*
X1618680D01*
X1619974Y399606D01*
X1620964Y400596D01*
X1621107Y400940D01*
X1622471D01*
Y400351D01*
X1631249D01*
Y404829D01*
X1622471D01*
Y404240D01*
X1621107D01*
X1620964Y404584D01*
X1619974Y405574D01*
X1618680Y406110D01*
D02*
G37*
G36*
X1691995Y407380D02*
X1690595D01*
X1689301Y406844D01*
X1688311Y405854D01*
X1687775Y404560D01*
Y403160D01*
X1688311Y401866D01*
X1688778Y401399D01*
X1688454Y400129D01*
X1687551D01*
Y399335D01*
X1683419D01*
Y401599D01*
X1675641D01*
Y393421D01*
X1683419D01*
Y394415D01*
X1687551D01*
Y392351D01*
X1695729D01*
Y393946D01*
X1702396D01*
X1702874Y394041D01*
X1705809D01*
Y398819D01*
X1702778D01*
X1702420Y398890D01*
X1702300Y398866D01*
X1695729D01*
Y400129D01*
X1693927D01*
Y401515D01*
X1694279Y401866D01*
X1694815Y403160D01*
Y404560D01*
X1694279Y405854D01*
X1693289Y406844D01*
X1691995Y407380D01*
D02*
G37*
G36*
X1731089Y400879D02*
X1723311D01*
Y397873D01*
X1719809D01*
Y398819D01*
X1713031D01*
X1713031Y398819D01*
Y398819D01*
X1711835Y398996D01*
X1711390Y399180D01*
X1709990D01*
X1708696Y398644D01*
X1707706Y397654D01*
X1707170Y396360D01*
Y394960D01*
X1707706Y393666D01*
X1708597Y392775D01*
X1707706Y391884D01*
X1707170Y390590D01*
Y389190D01*
X1707706Y387896D01*
X1708696Y386906D01*
X1709990Y386370D01*
X1711390D01*
X1711761Y386524D01*
X1713031Y386041D01*
Y386041D01*
X1719809D01*
Y386780D01*
X1723311D01*
Y380841D01*
X1731089D01*
Y390119D01*
X1723311D01*
Y390080D01*
X1719809D01*
Y390819D01*
X1715825D01*
X1715578Y390921D01*
X1714073D01*
X1713674Y391884D01*
X1712783Y392775D01*
X1713674Y393666D01*
X1713829Y394041D01*
X1719809D01*
Y394987D01*
X1723311D01*
Y391601D01*
X1731089D01*
Y400879D01*
D02*
G37*
G36*
X1702420Y390080D02*
X1692630D01*
X1691464Y389596D01*
X1690474Y388606D01*
X1689990Y387440D01*
X1690474Y386273D01*
X1691640Y385790D01*
X1692806Y386273D01*
X1693313Y386780D01*
X1702420D01*
X1703586Y387264D01*
X1704069Y388430D01*
X1703586Y389596D01*
X1702420Y390080D01*
D02*
G37*
G36*
X1626860Y398550D02*
X1625918Y398363D01*
X1625867Y398329D01*
X1622471D01*
Y393851D01*
X1624410D01*
Y389500D01*
X1624597Y388558D01*
X1624597Y388558D01*
X1624597Y388558D01*
X1624865Y388157D01*
X1625130Y387760D01*
X1625130Y387760D01*
X1625130Y387760D01*
X1627471Y385420D01*
Y380721D01*
X1627702D01*
X1628551Y379451D01*
X1628430Y379160D01*
Y377760D01*
X1628966Y376466D01*
X1629956Y375476D01*
X1631250Y374940D01*
X1632650D01*
X1633944Y375476D01*
X1634934Y376466D01*
X1635470Y377760D01*
Y379160D01*
X1635335Y379487D01*
X1635249Y380721D01*
X1635249Y380721D01*
X1635249Y380721D01*
Y388899D01*
X1630950D01*
X1629330Y390519D01*
Y393851D01*
X1631249D01*
Y398329D01*
X1627852D01*
X1627801Y398363D01*
X1626860Y398550D01*
D02*
G37*
G36*
X1670209Y377269D02*
X1660931D01*
Y375840D01*
X1657743D01*
X1656801Y375653D01*
X1656767Y375630D01*
X1655380D01*
X1654086Y375094D01*
X1653096Y374104D01*
X1652560Y372810D01*
Y371410D01*
X1653096Y370116D01*
X1654086Y369126D01*
X1655380Y368590D01*
X1656780D01*
X1658074Y369126D01*
X1659064Y370116D01*
X1659397Y370920D01*
X1660931D01*
Y369491D01*
X1670209D01*
Y377269D01*
D02*
G37*
G36*
X1719659Y362229D02*
X1711881D01*
Y360737D01*
X1710611Y360657D01*
X1710144Y361124D01*
X1708850Y361660D01*
X1707450D01*
X1706156Y361124D01*
X1705166Y360134D01*
X1704630Y358840D01*
Y357440D01*
X1705166Y356146D01*
X1706156Y355156D01*
X1707450Y354620D01*
X1708850D01*
X1710144Y355156D01*
X1710611Y355623D01*
X1711881Y355543D01*
Y354051D01*
X1713310D01*
Y351589D01*
X1709041D01*
Y344811D01*
X1718819D01*
Y351589D01*
X1718230D01*
Y354051D01*
X1719659D01*
Y362229D01*
D02*
G37*
G36*
X1730819Y351589D02*
X1721041D01*
Y344811D01*
X1730819D01*
Y351589D01*
D02*
G37*
G36*
X1665331Y344469D02*
X1664109D01*
X1664061Y344469D01*
X1656379D01*
X1656331Y344469D01*
X1655109D01*
X1655061Y344469D01*
X1647379D01*
X1647331Y344469D01*
X1646109D01*
X1646061Y344469D01*
X1638379D01*
X1638331Y344469D01*
X1637109D01*
X1637061Y344469D01*
X1629379D01*
X1629331Y344469D01*
X1628109D01*
X1628061Y344469D01*
X1620331D01*
Y336739D01*
X1620331Y336691D01*
Y335469D01*
X1620331Y335421D01*
Y327739D01*
X1620331Y327691D01*
Y326469D01*
X1620331Y326421D01*
Y318739D01*
X1620331Y318691D01*
Y317469D01*
X1620331Y317421D01*
Y309691D01*
X1628061D01*
X1628109Y309691D01*
X1629331D01*
X1629379Y309691D01*
X1637061D01*
X1637109Y309691D01*
X1638331D01*
X1638379Y309691D01*
X1646061D01*
X1646109Y309691D01*
X1647331D01*
X1647379Y309691D01*
X1655061D01*
X1655109Y309691D01*
X1656331D01*
X1656379Y309691D01*
X1664061D01*
X1664109Y309691D01*
X1665331D01*
X1665379Y309691D01*
X1673109D01*
Y317421D01*
X1673109Y317469D01*
Y318691D01*
X1673109Y318739D01*
Y326421D01*
X1673109Y326469D01*
Y327691D01*
X1673109Y327739D01*
Y335421D01*
X1673109Y335469D01*
Y336691D01*
X1673109Y336739D01*
Y344469D01*
X1665379D01*
X1665331Y344469D01*
D02*
G37*
G36*
X1706310Y342610D02*
X1704910D01*
X1703616Y342074D01*
X1702626Y341084D01*
X1702090Y339790D01*
Y338390D01*
X1702626Y337096D01*
X1703616Y336106D01*
X1704910Y335570D01*
X1706310D01*
X1707604Y336106D01*
X1707771Y336273D01*
X1709041Y335811D01*
Y335811D01*
X1718819D01*
Y342589D01*
X1709041D01*
Y342433D01*
X1707771Y341907D01*
X1707604Y342074D01*
X1706310Y342610D01*
D02*
G37*
G36*
X1730819Y333589D02*
X1721041D01*
Y326811D01*
X1730819D01*
Y333589D01*
D02*
G37*
G36*
X1718819D02*
X1709041D01*
Y326811D01*
X1718819D01*
Y333589D01*
D02*
G37*
G36*
X1730819Y324589D02*
X1721041D01*
Y317811D01*
X1722143D01*
X1722775Y316541D01*
X1722410Y315660D01*
Y314260D01*
X1722946Y312966D01*
X1723936Y311976D01*
X1725230Y311440D01*
X1726630D01*
X1727924Y311976D01*
X1728914Y312966D01*
X1729450Y314260D01*
Y315660D01*
X1729085Y316541D01*
X1729717Y317811D01*
X1730819D01*
Y324589D01*
D02*
G37*
G36*
X1718819D02*
X1709041D01*
Y317811D01*
X1709443D01*
X1710075Y316541D01*
X1709710Y315660D01*
Y314260D01*
X1710246Y312966D01*
X1711236Y311976D01*
X1712530Y311440D01*
X1713930D01*
X1715224Y311976D01*
X1716214Y312966D01*
X1716750Y314260D01*
Y315660D01*
X1716385Y316541D01*
X1717017Y317811D01*
X1718819D01*
Y324589D01*
D02*
G37*
G36*
X1736819Y269279D02*
X1728041D01*
Y263501D01*
X1736819D01*
Y269279D01*
D02*
G37*
%LPD*%
G36*
X1667164Y574275D02*
Y566145D01*
X1661415Y560396D01*
X1645591D01*
X1639480Y554285D01*
X1638009D01*
X1635022Y551297D01*
X1633308Y553011D01*
Y553862D01*
X1635022Y555575D01*
Y557034D01*
X1631728Y560327D01*
Y572105D01*
X1639647Y580024D01*
X1661415D01*
X1667164Y574275D01*
D02*
G37*
G36*
X1663700Y547370D02*
X1662430Y546100D01*
X1642110D01*
X1636784Y550361D01*
X1636714Y551629D01*
X1637275Y552190D01*
X1638974Y553323D01*
X1639480D01*
X1640160Y553605D01*
X1640276Y553720D01*
X1663700D01*
Y547370D01*
D02*
G37*
G36*
X1641509Y545349D02*
X1641625Y545315D01*
X1647190Y539750D01*
X1662430D01*
Y525780D01*
X1657350Y520700D01*
X1630680D01*
Y532130D01*
X1633220Y534670D01*
Y542290D01*
X1638300Y547370D01*
X1638982D01*
X1641509Y545349D01*
D02*
G37*
D13*
X1685610Y531910D02*
D03*
Y567910D02*
D03*
X1695610Y531910D02*
D03*
Y567910D02*
D03*
X1705610Y531910D02*
D03*
Y567910D02*
D03*
X1715610Y531910D02*
D03*
Y567910D02*
D03*
X1725610Y531910D02*
D03*
Y567910D02*
D03*
D14*
X1610470Y295330D02*
D03*
Y358830D02*
D03*
X1682970Y295330D02*
D03*
Y358830D02*
D03*
D15*
X1615220Y295330D02*
D03*
X1619720D02*
D03*
X1624220D02*
D03*
X1628720D02*
D03*
X1633220D02*
D03*
X1637720D02*
D03*
X1642220D02*
D03*
X1646720D02*
D03*
X1651220D02*
D03*
X1655720D02*
D03*
X1660220D02*
D03*
X1664720D02*
D03*
X1669220D02*
D03*
X1673720D02*
D03*
X1678220D02*
D03*
Y358830D02*
D03*
X1673720D02*
D03*
X1669220D02*
D03*
X1664720D02*
D03*
X1660220D02*
D03*
X1655720D02*
D03*
X1651220D02*
D03*
X1646720D02*
D03*
X1642220D02*
D03*
X1637720D02*
D03*
X1633220D02*
D03*
X1628720D02*
D03*
X1624220D02*
D03*
X1619720D02*
D03*
X1615220D02*
D03*
D16*
X1682970Y300080D02*
D03*
Y304580D02*
D03*
Y309080D02*
D03*
Y313580D02*
D03*
Y318080D02*
D03*
Y322580D02*
D03*
Y327080D02*
D03*
Y331580D02*
D03*
Y336080D02*
D03*
Y340580D02*
D03*
Y345080D02*
D03*
Y349580D02*
D03*
Y354080D02*
D03*
X1610470D02*
D03*
Y349580D02*
D03*
Y345080D02*
D03*
Y340580D02*
D03*
Y336080D02*
D03*
Y331580D02*
D03*
Y327080D02*
D03*
Y322580D02*
D03*
Y318080D02*
D03*
Y313580D02*
D03*
Y309080D02*
D03*
Y304580D02*
D03*
Y300080D02*
D03*
D17*
X1624220Y313580D02*
D03*
X1633220D02*
D03*
X1642220D02*
D03*
X1651220D02*
D03*
X1660220D02*
D03*
X1669220D02*
D03*
Y340580D02*
D03*
X1660220D02*
D03*
X1651220D02*
D03*
X1642220D02*
D03*
X1633220D02*
D03*
X1624220D02*
D03*
X1669220Y322580D02*
D03*
Y331580D02*
D03*
X1624220D02*
D03*
Y322580D02*
D03*
X1633220D02*
D03*
X1642220D02*
D03*
X1651220D02*
D03*
X1660220D02*
D03*
Y331580D02*
D03*
X1651220D02*
D03*
X1642220D02*
D03*
X1633220D02*
D03*
D18*
X1580870Y296580D02*
D03*
Y357580D02*
D03*
D19*
X1621200Y281940D02*
D03*
X1630000D02*
D03*
X1685880D02*
D03*
X1677080D02*
D03*
X1631360Y384810D02*
D03*
X1640160D02*
D03*
X1679530Y397510D02*
D03*
X1670730D02*
D03*
X1636350Y537210D02*
D03*
X1627550D02*
D03*
X1715770Y358140D02*
D03*
X1724570D02*
D03*
D20*
X1626860Y409090D02*
D03*
Y402590D02*
D03*
Y396090D02*
D03*
X1644660D02*
D03*
Y402590D02*
D03*
Y409090D02*
D03*
D21*
X1635760Y402590D02*
D03*
D22*
X1665570Y373380D02*
D03*
X1677070D02*
D03*
X1696050Y270510D02*
D03*
X1707550D02*
D03*
X1684020D02*
D03*
X1672520D02*
D03*
X1696050Y260350D02*
D03*
X1707550D02*
D03*
D23*
X1632327Y555936D02*
D03*
X1638567D02*
D03*
X1635447Y553437D02*
D03*
X1632327Y550937D02*
D03*
X1638567D02*
D03*
X1635447Y548436D02*
D03*
X1632327Y545936D02*
D03*
X1638567D02*
D03*
D24*
X1623617Y566216D02*
D03*
X1637117D02*
D03*
X1622260Y525780D02*
D03*
X1635760D02*
D03*
X1629810Y270510D02*
D03*
X1616310D02*
D03*
D25*
X1654497Y549706D02*
D03*
Y536207D02*
D03*
D26*
X1713930Y321200D02*
D03*
Y330200D02*
D03*
Y339200D02*
D03*
Y348200D02*
D03*
X1725930D02*
D03*
Y339200D02*
D03*
Y330200D02*
D03*
Y321200D02*
D03*
D27*
X1719430Y259390D02*
D03*
X1732430D02*
D03*
Y266390D02*
D03*
X1719430D02*
D03*
D28*
X1727200Y407740D02*
D03*
Y396240D02*
D03*
Y373980D02*
D03*
Y385480D02*
D03*
D29*
X1716420Y396430D02*
D03*
Y388430D02*
D03*
X1702420Y396430D02*
D03*
Y388430D02*
D03*
D30*
X1642110Y272460D02*
D03*
Y281260D02*
D03*
X1691640Y396240D02*
D03*
Y387440D02*
D03*
D43*
X1715610Y567910D02*
X1715770Y568070D01*
Y584200D01*
X1695450Y568070D02*
X1695610Y567910D01*
X1695450Y568070D02*
Y584200D01*
X1697217Y516238D02*
X1698987D01*
X1699605Y515620D01*
X1715770D02*
Y531750D01*
X1715610Y531910D02*
X1715770Y531750D01*
X1615150Y317790D02*
X1615440Y317500D01*
X1610470Y318080D02*
X1610760Y317790D01*
X1615150D01*
X1682970Y336080D02*
X1683205Y336315D01*
X1688865D01*
X1689100Y336550D01*
X1705610Y567910D02*
Y584200D01*
X1695450Y518005D02*
Y527272D01*
Y518005D02*
X1697217Y516238D01*
X1691640Y387440D02*
X1692630Y388430D01*
X1702420D01*
X1682970Y331580D02*
X1683732Y330818D01*
X1688482D01*
X1689100Y330200D01*
X1611585Y289605D02*
X1611630Y289560D01*
X1648900Y287850D02*
X1651220Y290170D01*
X1642310Y281260D02*
X1648900Y287850D01*
X1642110Y281260D02*
X1642310D01*
X1651220Y290170D02*
Y295330D01*
X1665078Y287519D02*
Y294972D01*
X1664720Y295330D02*
X1665078Y294972D01*
Y287519D02*
X1672520Y280078D01*
X1637720Y295330D02*
X1638585Y294465D01*
Y292689D02*
Y294465D01*
X1646320Y295730D02*
X1646720Y295330D01*
X1646320Y295730D02*
Y300590D01*
X1645920Y300990D02*
X1646320Y300590D01*
X1655900Y295510D02*
Y300810D01*
X1656080Y300990D01*
X1655720Y295330D02*
X1655900Y295510D01*
X1660572Y290944D02*
Y294978D01*
Y290944D02*
X1660923Y290593D01*
X1660220Y295330D02*
X1660572Y294978D01*
X1640173Y299594D02*
Y300468D01*
Y299594D02*
X1641355Y298413D01*
Y296195D02*
Y298413D01*
Y296195D02*
X1642220Y295330D01*
X1638585Y292689D02*
X1640840Y290434D01*
Y289560D02*
Y290434D01*
X1644650Y409100D02*
X1644660Y409090D01*
X1677070Y373380D02*
X1678220Y372230D01*
Y358830D02*
Y372230D01*
X1626860Y409090D02*
X1626870Y409100D01*
X1725930Y314960D02*
Y321200D01*
X1713810Y270510D02*
X1717930Y266390D01*
X1707550Y270510D02*
X1713810D01*
X1717930Y266390D02*
X1719430D01*
X1705610Y339090D02*
X1713820D01*
X1713930Y339200D01*
X1727200Y385480D02*
Y386065D01*
X1724835Y388430D02*
X1727200Y386065D01*
X1716420Y388430D02*
X1724835D01*
X1710690Y389890D02*
X1711308Y389272D01*
X1715578D02*
X1716420Y388430D01*
X1711308Y389272D02*
X1715578D01*
X1626870Y409100D02*
Y415290D01*
X1644650Y409100D02*
Y415290D01*
X1617980Y402590D02*
X1626860D01*
X1611585Y289605D02*
Y294215D01*
X1610470Y295330D02*
X1611585Y294215D01*
X1672520Y270510D02*
Y280078D01*
X1696720Y271180D02*
Y276860D01*
X1696050Y270510D02*
X1696720Y271180D01*
X1687830Y260350D02*
X1696050D01*
X1718470D02*
X1719430Y259390D01*
X1707550Y260350D02*
X1718470D01*
D44*
X1614170Y281940D02*
X1621200D01*
X1633220Y289560D02*
Y295330D01*
X1725770Y565920D02*
Y584040D01*
X1725930Y584200D01*
X1621200Y281740D02*
Y281940D01*
Y282140D02*
X1624220Y285160D01*
X1621200Y281940D02*
Y282140D01*
X1624220Y285160D02*
Y295330D01*
X1673744Y293143D02*
X1675720Y291167D01*
X1676063D02*
X1676400Y290830D01*
X1675720Y291167D02*
X1676063D01*
X1673744Y293143D02*
Y295306D01*
X1673720Y295330D02*
X1673744Y295306D01*
X1656473Y372110D02*
X1657743Y373380D01*
X1665570D01*
X1656080Y372110D02*
X1656473D01*
X1626870Y389500D02*
Y396080D01*
Y389500D02*
X1631360Y385010D01*
Y384810D02*
Y385010D01*
X1626860Y396090D02*
X1626870Y396080D01*
X1631672Y378738D02*
Y384498D01*
X1631360Y384810D02*
X1631672Y384498D01*
Y378738D02*
X1631950Y378460D01*
X1734785Y407705D02*
X1734820Y407670D01*
X1727235Y407705D02*
X1734785D01*
X1727200Y407740D02*
X1727235Y407705D01*
X1708150Y358140D02*
X1715770D01*
Y349176D02*
Y358140D01*
X1713930Y348200D02*
X1714794D01*
X1715770Y349176D01*
X1727200Y373980D02*
X1727522Y373658D01*
X1619286Y279826D02*
X1621200Y281740D01*
X1619286Y273486D02*
Y279826D01*
X1616310Y270510D02*
X1619286Y273486D01*
X1680165Y396875D02*
X1691005D01*
X1691640Y396240D02*
X1691806Y396406D01*
X1702396D01*
X1691005Y396875D02*
X1691640Y396240D01*
X1679530Y397510D02*
X1680165Y396875D01*
X1691467Y396413D02*
Y403687D01*
Y396413D02*
X1691640Y396240D01*
X1691295Y403860D02*
X1691467Y403687D01*
X1702396Y396406D02*
X1702420Y396430D01*
X1685880Y281940D02*
Y292420D01*
X1676400Y290830D02*
X1684290D01*
X1685880Y292420D01*
X1682970Y295330D02*
X1685880Y292420D01*
Y281940D02*
X1686872Y282932D01*
X1692632D02*
X1692910Y283210D01*
X1686872Y282932D02*
X1692632D01*
X1727522Y373658D02*
X1734542D01*
X1734820Y373380D01*
D45*
X1670050Y296160D02*
Y300990D01*
X1669220Y295330D02*
X1670050Y296160D01*
X1713230Y320500D02*
X1713930Y321200D01*
X1713230Y314960D02*
Y320500D01*
X1727010Y396430D02*
X1727200Y396240D01*
X1716420Y396430D02*
X1727010D01*
X1712800Y396351D02*
X1712879Y396430D01*
X1716420D01*
X1711381Y396351D02*
X1712800D01*
X1710690Y395660D02*
X1711381Y396351D01*
D46*
X1586150Y570210D02*
D03*
D47*
X1657350Y275610D02*
D03*
Y570210D02*
D03*
D48*
X1690610Y549910D02*
D03*
X1720610D02*
D03*
D49*
X1701764Y448056D02*
D03*
Y348488D02*
D03*
X1690434Y485394D02*
D03*
X1700903Y472948D02*
D03*
X1691295Y510286D02*
D03*
X1699605Y515620D02*
D03*
X1709467Y425023D02*
D03*
X1717548Y435610D02*
D03*
Y485394D02*
D03*
Y460502D02*
D03*
X1715770Y515620D02*
D03*
X1673987Y472948D02*
D03*
X1711325Y448056D02*
D03*
X1736217Y298704D02*
D03*
X1667764Y460502D02*
D03*
X1699605Y497840D02*
D03*
X1615440Y317500D02*
D03*
X1617980Y303530D02*
D03*
X1689100Y336550D02*
D03*
X1614170Y281940D02*
D03*
X1633220Y289560D02*
D03*
X1711325Y472948D02*
D03*
X1633220Y331580D02*
D03*
X1711325Y497840D02*
D03*
X1649095Y348488D02*
D03*
X1699605Y423164D02*
D03*
X1691295Y460502D02*
D03*
Y435610D02*
D03*
X1689100Y330200D02*
D03*
X1611630Y289560D02*
D03*
X1648900Y287850D02*
D03*
X1695450Y584200D02*
D03*
X1715770D02*
D03*
X1705610D02*
D03*
X1725930D02*
D03*
X1605534Y460502D02*
D03*
X1661541Y398272D02*
D03*
X1586865D02*
D03*
X1661541Y497840D02*
D03*
X1680210Y261366D02*
D03*
X1642872Y510286D02*
D03*
X1736217Y547624D02*
D03*
X1705102Y286258D02*
D03*
X1617980Y410718D02*
D03*
Y485394D02*
D03*
X1586865Y547624D02*
D03*
X1673987Y448056D02*
D03*
X1705102Y460502D02*
D03*
X1599311Y472948D02*
D03*
X1723771Y273812D02*
D03*
X1624203Y497840D02*
D03*
X1630426Y485394D02*
D03*
X1661541Y423164D02*
D03*
X1586865Y497840D02*
D03*
X1723771Y298704D02*
D03*
X1736217Y273812D02*
D03*
X1605534Y385826D02*
D03*
X1586865Y373380D02*
D03*
X1649095Y497840D02*
D03*
X1636649Y348488D02*
D03*
X1667764Y510286D02*
D03*
X1717548Y286258D02*
D03*
X1642872Y435610D02*
D03*
X1611757Y572516D02*
D03*
X1605534Y410718D02*
D03*
X1630426Y460502D02*
D03*
X1605534Y510286D02*
D03*
X1661541Y448056D02*
D03*
X1580642Y510286D02*
D03*
X1593088Y535178D02*
D03*
X1667764Y385826D02*
D03*
X1586865Y522732D02*
D03*
X1580642Y460502D02*
D03*
X1611757Y472948D02*
D03*
X1605534Y560070D02*
D03*
X1599311Y398272D02*
D03*
X1736217Y348488D02*
D03*
X1593088Y460502D02*
D03*
X1692656Y311150D02*
D03*
X1611757Y448056D02*
D03*
X1661541Y348488D02*
D03*
X1605534Y435610D02*
D03*
X1655318Y485394D02*
D03*
X1673987Y572516D02*
D03*
X1736217Y323596D02*
D03*
X1642872Y460502D02*
D03*
X1655318D02*
D03*
X1636649Y472948D02*
D03*
X1593088Y485394D02*
D03*
X1636649Y423164D02*
D03*
X1661541Y472948D02*
D03*
X1673987Y522732D02*
D03*
Y547624D02*
D03*
X1611757Y373380D02*
D03*
X1617980Y261366D02*
D03*
X1580642Y410718D02*
D03*
Y535178D02*
D03*
X1617980D02*
D03*
X1705102Y485394D02*
D03*
X1593088Y360934D02*
D03*
X1673987Y423164D02*
D03*
X1617980Y460502D02*
D03*
X1729994Y286258D02*
D03*
X1655318Y510286D02*
D03*
X1667764Y535178D02*
D03*
X1599311Y497840D02*
D03*
X1593088Y510286D02*
D03*
X1649095Y423164D02*
D03*
X1586865Y472948D02*
D03*
X1599311Y373380D02*
D03*
X1667764Y560070D02*
D03*
X1655318Y385826D02*
D03*
X1624203Y423164D02*
D03*
X1611757Y497840D02*
D03*
X1593088Y410718D02*
D03*
X1624203Y448056D02*
D03*
X1617980Y510286D02*
D03*
X1642872Y485394D02*
D03*
X1667764Y435610D02*
D03*
X1636649Y373380D02*
D03*
Y448056D02*
D03*
X1624203Y472948D02*
D03*
X1705102Y435610D02*
D03*
X1593088Y385826D02*
D03*
X1649095Y373380D02*
D03*
X1630426Y435610D02*
D03*
X1599311Y522732D02*
D03*
X1655318Y261366D02*
D03*
X1611757Y522732D02*
D03*
X1617980Y336042D02*
D03*
X1667764Y485394D02*
D03*
X1580642Y435610D02*
D03*
X1630426Y261366D02*
D03*
X1636649Y497840D02*
D03*
X1611757Y547624D02*
D03*
X1624203D02*
D03*
X1642872Y261366D02*
D03*
X1593088Y435610D02*
D03*
X1580642Y385826D02*
D03*
X1630426Y510286D02*
D03*
X1673987Y497840D02*
D03*
X1736217Y398272D02*
D03*
X1605534Y485394D02*
D03*
X1599311Y423164D02*
D03*
X1605534Y535178D02*
D03*
X1673987Y348488D02*
D03*
X1736217Y572516D02*
D03*
X1586865Y448056D02*
D03*
X1611757Y423164D02*
D03*
X1649095Y448056D02*
D03*
X1692431Y288960D02*
D03*
X1580642Y485394D02*
D03*
X1649095Y472948D02*
D03*
X1586865Y423164D02*
D03*
X1655318Y435610D02*
D03*
X1667764Y261366D02*
D03*
X1617980Y435610D02*
D03*
X1611757Y398272D02*
D03*
X1599311Y448056D02*
D03*
Y547624D02*
D03*
X1670050Y300990D02*
D03*
X1656080D02*
D03*
X1645920D02*
D03*
X1640173Y300468D02*
D03*
X1640840Y289560D02*
D03*
X1656080Y372110D02*
D03*
X1626870Y415290D02*
D03*
X1644650D02*
D03*
X1617980Y402590D02*
D03*
X1631950Y378460D02*
D03*
X1708150Y358140D02*
D03*
X1734820Y407670D02*
D03*
X1710690Y389890D02*
D03*
X1734820Y373380D02*
D03*
X1710690Y395660D02*
D03*
X1687830Y260350D02*
D03*
X1660923Y290593D02*
D03*
X1696720Y276860D02*
D03*
X1692910Y283210D02*
D03*
X1725930Y314960D02*
D03*
X1713230D02*
D03*
X1705610Y339090D02*
D03*
X1648460Y528320D02*
D03*
X1653540Y524510D02*
D03*
X1647190Y523240D02*
D03*
X1656080Y529590D02*
D03*
X1691295Y403860D02*
D03*
M02*
