G04*
G04 #@! TF.GenerationSoftware,Altium Limited,Altium Designer,22.8.2 (66)*
G04*
G04 Layer_Color=16711935*
%FSLAX44Y44*%
%MOMM*%
G71*
G04*
G04 #@! TF.SameCoordinates,1C822ADC-4D7C-47C7-80CC-BC155C960612*
G04*
G04*
G04 #@! TF.FilePolarity,Positive*
G04*
G01*
G75*
%ADD10C,0.2000*%
%ADD12C,0.1000*%
%ADD43C,0.1270*%
D10*
X1686610Y513910D02*
G03*
X1686610Y513910I-1000J0D01*
G01*
X1575845Y290205D02*
Y363955D01*
X1686595D01*
Y290205D02*
Y363955D01*
X1575845Y290205D02*
X1686595D01*
X1625510Y412840D02*
X1646010D01*
Y392340D02*
Y412840D01*
X1625510Y392340D02*
X1646010D01*
X1625510D02*
Y412840D01*
X1717430Y267390D02*
X1734430D01*
Y258390D02*
Y267390D01*
X1717430Y258390D02*
X1734430D01*
X1717430D02*
Y267390D01*
X1701420Y384430D02*
X1717420D01*
X1701420D02*
Y400430D01*
X1717420D01*
Y384430D02*
Y400430D01*
D12*
X1620450Y284540D02*
X1630750D01*
X1620450Y279340D02*
X1630750D01*
X1620450D02*
Y284540D01*
X1630750Y279340D02*
Y284540D01*
X1676330Y279340D02*
X1686630D01*
X1676330Y284540D02*
X1686630D01*
Y279340D02*
Y284540D01*
X1676330Y279340D02*
Y284540D01*
X1630610Y387410D02*
X1640910D01*
X1630610Y382210D02*
X1640910D01*
X1630610D02*
Y387410D01*
X1640910Y382210D02*
Y387410D01*
X1669980Y394910D02*
X1680280D01*
X1669980Y400110D02*
X1680280D01*
Y394910D02*
Y400110D01*
X1669980Y394910D02*
Y400110D01*
X1666070Y370630D02*
Y376130D01*
X1676570Y370630D02*
Y376130D01*
X1666070D02*
X1676570D01*
X1666070Y370630D02*
X1676570D01*
X1621617Y561466D02*
Y570967D01*
X1639117Y561466D02*
Y570967D01*
X1621617D02*
X1639117D01*
X1621617Y561466D02*
X1639117D01*
X1645497Y553957D02*
X1663387D01*
X1645497Y531957D02*
X1663387D01*
Y553957D01*
X1645497Y531957D02*
Y553957D01*
X1620260Y521030D02*
Y530530D01*
X1637760Y521030D02*
Y530530D01*
X1620260D02*
X1637760D01*
X1620260Y521030D02*
X1637760D01*
X1626800Y534610D02*
X1637100D01*
X1626800Y539810D02*
X1637100D01*
Y534610D02*
Y539810D01*
X1626800Y534610D02*
Y539810D01*
X1712430Y350700D02*
X1727430D01*
X1712430Y318700D02*
X1727430D01*
Y350700D01*
X1712430Y318700D02*
Y350700D01*
X1696550Y273260D02*
X1707050D01*
X1696550Y267760D02*
X1707050D01*
X1696550D02*
Y273260D01*
X1707050Y267760D02*
Y273260D01*
X1724450Y407240D02*
X1729950D01*
X1724450Y396740D02*
X1729950D01*
Y407240D01*
X1724450Y396740D02*
Y407240D01*
X1715020Y360740D02*
X1725320D01*
X1715020Y355540D02*
X1725320D01*
X1715020D02*
Y360740D01*
X1725320Y355540D02*
Y360740D01*
X1724450Y374480D02*
X1729950D01*
X1724450Y384980D02*
X1729950D01*
X1724450Y374480D02*
Y384980D01*
X1729950Y374480D02*
Y384980D01*
X1639510Y271710D02*
Y282010D01*
X1644710Y271710D02*
Y282010D01*
X1639510Y271710D02*
X1644710D01*
X1639510Y282010D02*
X1644710D01*
X1631810Y265760D02*
Y275260D01*
X1614310Y265760D02*
Y275260D01*
Y265760D02*
X1631810D01*
X1614310Y275260D02*
X1631810D01*
X1694240Y386690D02*
Y396990D01*
X1689040Y386690D02*
Y396990D01*
X1694240D01*
X1689040Y386690D02*
X1694240D01*
X1683520Y267760D02*
Y273260D01*
X1673020Y267760D02*
Y273260D01*
Y267760D02*
X1683520D01*
X1673020Y273260D02*
X1683520D01*
X1696550Y263100D02*
X1707050D01*
X1696550Y257600D02*
X1707050D01*
X1696550D02*
Y263100D01*
X1707050Y257600D02*
Y263100D01*
D43*
X1680610Y565910D02*
X1730610D01*
Y533910D02*
Y565910D01*
X1680610Y533910D02*
X1730610D01*
X1680610D02*
Y565910D01*
M02*
