G04*
G04 #@! TF.GenerationSoftware,Altium Limited,Altium Designer,22.8.2 (66)*
G04*
G04 Layer_Physical_Order=5*
G04 Layer_Color=16737945*
%FSLAX44Y44*%
%MOMM*%
G71*
G04*
G04 #@! TF.SameCoordinates,1C822ADC-4D7C-47C7-80CC-BC155C960612*
G04*
G04*
G04 #@! TF.FilePolarity,Positive*
G04*
G01*
G75*
%ADD47C,1.7850*%
%ADD49C,0.4500*%
G36*
X1739131Y409779D02*
X1737861Y409527D01*
X1737804Y409664D01*
X1736814Y410654D01*
X1735520Y411190D01*
X1734120D01*
X1732826Y410654D01*
X1731836Y409664D01*
X1731300Y408370D01*
Y406970D01*
X1731836Y405676D01*
X1732826Y404686D01*
X1734120Y404150D01*
X1735520D01*
X1736814Y404686D01*
X1737804Y405676D01*
X1737861Y405813D01*
X1739131Y405561D01*
Y375489D01*
X1737861Y375237D01*
X1737804Y375374D01*
X1736814Y376364D01*
X1735520Y376900D01*
X1734120D01*
X1732826Y376364D01*
X1731836Y375374D01*
X1731300Y374080D01*
Y372680D01*
X1731836Y371386D01*
X1732826Y370396D01*
X1734120Y369860D01*
X1735520D01*
X1736814Y370396D01*
X1737804Y371386D01*
X1737861Y371523D01*
X1739131Y371271D01*
Y256039D01*
X1689939D01*
X1689687Y257309D01*
X1689824Y257366D01*
X1690814Y258356D01*
X1691350Y259650D01*
Y261050D01*
X1690814Y262344D01*
X1689824Y263334D01*
X1688530Y263870D01*
X1687130D01*
X1685836Y263334D01*
X1684846Y262344D01*
X1684310Y261050D01*
Y259650D01*
X1684846Y258356D01*
X1685836Y257366D01*
X1685973Y257309D01*
X1685721Y256039D01*
X1607724D01*
Y286726D01*
X1608994Y287218D01*
X1609636Y286576D01*
X1610930Y286040D01*
X1611633D01*
X1611897Y285496D01*
X1612022Y284770D01*
X1611186Y283934D01*
X1610650Y282640D01*
Y281240D01*
X1611186Y279946D01*
X1612176Y278956D01*
X1613470Y278420D01*
X1614870D01*
X1616164Y278956D01*
X1617154Y279946D01*
X1617690Y281240D01*
Y282640D01*
X1617154Y283934D01*
X1616164Y284924D01*
X1614870Y285460D01*
X1614167D01*
X1613903Y286004D01*
X1613778Y286730D01*
X1614614Y287566D01*
X1615150Y288860D01*
Y290260D01*
X1614614Y291554D01*
X1613624Y292544D01*
X1612330Y293080D01*
X1610930D01*
X1609636Y292544D01*
X1608994Y291902D01*
X1607724Y292395D01*
Y355313D01*
X1575569D01*
Y558909D01*
X1576742Y559395D01*
X1577370Y558767D01*
X1580631Y556885D01*
X1584268Y555910D01*
X1588033D01*
X1591670Y556885D01*
X1594931Y558767D01*
X1597593Y561430D01*
X1599476Y564691D01*
X1600450Y568328D01*
Y572093D01*
X1599476Y575730D01*
X1597593Y578991D01*
X1594931Y581653D01*
X1591670Y583536D01*
X1588033Y584510D01*
X1584268D01*
X1580631Y583536D01*
X1577370Y581653D01*
X1576742Y581026D01*
X1575569Y581512D01*
Y589781D01*
X1739131D01*
Y409779D01*
D02*
G37*
%LPC*%
G36*
X1726630Y587720D02*
X1725230D01*
X1723936Y587184D01*
X1722946Y586194D01*
X1722410Y584900D01*
Y583500D01*
X1722946Y582206D01*
X1723936Y581216D01*
X1725230Y580680D01*
X1726630D01*
X1727924Y581216D01*
X1728914Y582206D01*
X1729450Y583500D01*
Y584900D01*
X1728914Y586194D01*
X1727924Y587184D01*
X1726630Y587720D01*
D02*
G37*
G36*
X1716470D02*
X1715070D01*
X1713776Y587184D01*
X1712786Y586194D01*
X1712250Y584900D01*
Y583500D01*
X1712786Y582206D01*
X1713776Y581216D01*
X1715070Y580680D01*
X1716470D01*
X1717764Y581216D01*
X1718754Y582206D01*
X1719290Y583500D01*
Y584900D01*
X1718754Y586194D01*
X1717764Y587184D01*
X1716470Y587720D01*
D02*
G37*
G36*
X1706310D02*
X1704910D01*
X1703616Y587184D01*
X1702626Y586194D01*
X1702090Y584900D01*
Y583500D01*
X1702626Y582206D01*
X1703616Y581216D01*
X1704910Y580680D01*
X1706310D01*
X1707604Y581216D01*
X1708594Y582206D01*
X1709130Y583500D01*
Y584900D01*
X1708594Y586194D01*
X1707604Y587184D01*
X1706310Y587720D01*
D02*
G37*
G36*
X1696150D02*
X1694750D01*
X1693456Y587184D01*
X1692466Y586194D01*
X1691930Y584900D01*
Y583500D01*
X1692466Y582206D01*
X1693456Y581216D01*
X1694750Y580680D01*
X1696150D01*
X1697444Y581216D01*
X1698434Y582206D01*
X1698970Y583500D01*
Y584900D01*
X1698434Y586194D01*
X1697444Y587184D01*
X1696150Y587720D01*
D02*
G37*
G36*
X1658642Y580024D02*
X1656058D01*
X1653562Y579355D01*
X1651324Y578063D01*
X1649497Y576236D01*
X1648205Y573998D01*
X1647536Y571502D01*
Y568918D01*
X1648205Y566422D01*
X1649497Y564184D01*
X1651324Y562357D01*
X1653562Y561065D01*
X1656058Y560396D01*
X1658642D01*
X1661138Y561065D01*
X1663376Y562357D01*
X1665203Y564184D01*
X1666495Y566422D01*
X1667164Y568918D01*
Y571502D01*
X1666495Y573998D01*
X1665203Y576236D01*
X1663376Y578063D01*
X1661138Y579355D01*
X1658642Y580024D01*
D02*
G37*
G36*
X1721466Y556410D02*
X1719754D01*
X1718101Y555967D01*
X1716619Y555111D01*
X1715409Y553901D01*
X1714553Y552419D01*
X1714110Y550766D01*
Y549054D01*
X1714553Y547401D01*
X1715409Y545919D01*
X1716619Y544709D01*
X1718101Y543853D01*
X1719754Y543410D01*
X1721466D01*
X1723119Y543853D01*
X1724601Y544709D01*
X1725811Y545919D01*
X1726667Y547401D01*
X1727110Y549054D01*
Y550766D01*
X1726667Y552419D01*
X1725811Y553901D01*
X1724601Y555111D01*
X1723119Y555967D01*
X1721466Y556410D01*
D02*
G37*
G36*
X1691465D02*
X1689754D01*
X1688101Y555967D01*
X1686619Y555111D01*
X1685408Y553901D01*
X1684553Y552419D01*
X1684110Y550766D01*
Y549054D01*
X1684553Y547401D01*
X1685408Y545919D01*
X1686619Y544709D01*
X1688101Y543853D01*
X1689754Y543410D01*
X1691465D01*
X1693119Y543853D01*
X1694601Y544709D01*
X1695811Y545919D01*
X1696667Y547401D01*
X1697110Y549054D01*
Y550766D01*
X1696667Y552419D01*
X1695811Y553901D01*
X1694601Y555111D01*
X1693119Y555967D01*
X1691465Y556410D01*
D02*
G37*
G36*
X1656780Y533110D02*
X1655380D01*
X1654086Y532574D01*
X1653096Y531584D01*
X1652694Y530614D01*
X1651870Y530416D01*
X1651591Y530390D01*
X1651342Y530416D01*
X1650454Y531304D01*
X1649160Y531840D01*
X1647760D01*
X1646466Y531304D01*
X1645476Y530314D01*
X1644940Y529020D01*
Y527620D01*
X1645471Y526338D01*
X1645196Y526224D01*
X1644206Y525234D01*
X1643670Y523940D01*
Y522540D01*
X1644206Y521246D01*
X1645196Y520256D01*
X1646490Y519720D01*
X1647890D01*
X1649184Y520256D01*
X1650102Y521174D01*
X1650439Y521402D01*
X1651466Y521606D01*
X1651546Y521526D01*
X1652840Y520990D01*
X1654240D01*
X1655534Y521526D01*
X1656524Y522516D01*
X1657060Y523810D01*
Y525210D01*
X1656733Y525999D01*
X1656780Y526070D01*
X1658074Y526606D01*
X1659064Y527596D01*
X1659600Y528890D01*
Y530290D01*
X1659064Y531584D01*
X1658074Y532574D01*
X1656780Y533110D01*
D02*
G37*
G36*
X1716470Y519140D02*
X1715070D01*
X1713776Y518604D01*
X1712786Y517614D01*
X1712250Y516320D01*
Y514920D01*
X1712786Y513626D01*
X1713776Y512636D01*
X1715070Y512100D01*
X1716470D01*
X1717764Y512636D01*
X1718754Y513626D01*
X1719290Y514920D01*
Y516320D01*
X1718754Y517614D01*
X1717764Y518604D01*
X1716470Y519140D01*
D02*
G37*
G36*
X1700305D02*
X1698905D01*
X1697611Y518604D01*
X1696621Y517614D01*
X1696085Y516320D01*
Y514920D01*
X1696621Y513626D01*
X1697611Y512636D01*
X1698905Y512100D01*
X1700305D01*
X1701599Y512636D01*
X1702589Y513626D01*
X1703125Y514920D01*
Y516320D01*
X1702589Y517614D01*
X1701599Y518604D01*
X1700305Y519140D01*
D02*
G37*
G36*
X1645350Y418810D02*
X1643950D01*
X1642656Y418274D01*
X1641666Y417284D01*
X1641130Y415990D01*
Y414590D01*
X1641666Y413296D01*
X1642656Y412306D01*
X1643950Y411770D01*
X1645350D01*
X1646644Y412306D01*
X1647634Y413296D01*
X1648170Y414590D01*
Y415990D01*
X1647634Y417284D01*
X1646644Y418274D01*
X1645350Y418810D01*
D02*
G37*
G36*
X1627570D02*
X1626170D01*
X1624876Y418274D01*
X1623886Y417284D01*
X1623350Y415990D01*
Y414590D01*
X1623886Y413296D01*
X1624876Y412306D01*
X1626170Y411770D01*
X1627570D01*
X1628864Y412306D01*
X1629854Y413296D01*
X1630390Y414590D01*
Y415990D01*
X1629854Y417284D01*
X1628864Y418274D01*
X1627570Y418810D01*
D02*
G37*
G36*
X1691995Y407380D02*
X1690595D01*
X1689301Y406844D01*
X1688311Y405854D01*
X1687775Y404560D01*
Y403160D01*
X1688311Y401866D01*
X1689301Y400876D01*
X1690595Y400340D01*
X1691995D01*
X1693289Y400876D01*
X1694279Y401866D01*
X1694815Y403160D01*
Y404560D01*
X1694279Y405854D01*
X1693289Y406844D01*
X1691995Y407380D01*
D02*
G37*
G36*
X1618680Y406110D02*
X1617280D01*
X1615986Y405574D01*
X1614996Y404584D01*
X1614460Y403290D01*
Y401890D01*
X1614996Y400596D01*
X1615986Y399606D01*
X1617280Y399070D01*
X1618680D01*
X1619974Y399606D01*
X1620964Y400596D01*
X1621500Y401890D01*
Y403290D01*
X1620964Y404584D01*
X1619974Y405574D01*
X1618680Y406110D01*
D02*
G37*
G36*
X1711390Y399180D02*
X1709990D01*
X1708696Y398644D01*
X1707706Y397654D01*
X1707170Y396360D01*
Y394960D01*
X1707706Y393666D01*
X1708597Y392775D01*
X1707706Y391884D01*
X1707170Y390590D01*
Y389190D01*
X1707706Y387896D01*
X1708696Y386906D01*
X1709990Y386370D01*
X1711390D01*
X1712684Y386906D01*
X1713674Y387896D01*
X1714210Y389190D01*
Y390590D01*
X1713674Y391884D01*
X1712783Y392775D01*
X1713674Y393666D01*
X1714210Y394960D01*
Y396360D01*
X1713674Y397654D01*
X1712684Y398644D01*
X1711390Y399180D01*
D02*
G37*
G36*
X1632650Y381980D02*
X1631250D01*
X1629956Y381444D01*
X1628966Y380454D01*
X1628430Y379160D01*
Y377760D01*
X1628966Y376466D01*
X1629956Y375476D01*
X1631250Y374940D01*
X1632650D01*
X1633944Y375476D01*
X1634934Y376466D01*
X1635470Y377760D01*
Y379160D01*
X1634934Y380454D01*
X1633944Y381444D01*
X1632650Y381980D01*
D02*
G37*
G36*
X1656780Y375630D02*
X1655380D01*
X1654086Y375094D01*
X1653096Y374104D01*
X1652560Y372810D01*
Y371410D01*
X1653096Y370116D01*
X1654086Y369126D01*
X1655380Y368590D01*
X1656780D01*
X1658074Y369126D01*
X1659064Y370116D01*
X1659600Y371410D01*
Y372810D01*
X1659064Y374104D01*
X1658074Y375094D01*
X1656780Y375630D01*
D02*
G37*
G36*
X1708850Y361660D02*
X1707450D01*
X1706156Y361124D01*
X1705166Y360134D01*
X1704630Y358840D01*
Y357440D01*
X1705166Y356146D01*
X1706156Y355156D01*
X1707450Y354620D01*
X1708850D01*
X1710144Y355156D01*
X1711134Y356146D01*
X1711670Y357440D01*
Y358840D01*
X1711134Y360134D01*
X1710144Y361124D01*
X1708850Y361660D01*
D02*
G37*
G36*
X1706310Y342610D02*
X1704910D01*
X1703616Y342074D01*
X1702626Y341084D01*
X1702090Y339790D01*
Y338390D01*
X1702626Y337096D01*
X1703616Y336106D01*
X1704910Y335570D01*
X1706310D01*
X1707604Y336106D01*
X1708594Y337096D01*
X1709130Y338390D01*
Y339790D01*
X1708594Y341084D01*
X1707604Y342074D01*
X1706310Y342610D01*
D02*
G37*
G36*
X1689800Y340070D02*
X1688400D01*
X1687106Y339534D01*
X1686116Y338544D01*
X1685580Y337250D01*
Y335850D01*
X1686116Y334556D01*
X1686467Y334205D01*
X1686987Y333375D01*
X1686467Y332545D01*
X1686116Y332194D01*
X1685580Y330900D01*
Y329500D01*
X1686116Y328206D01*
X1687106Y327216D01*
X1688400Y326680D01*
X1689800D01*
X1691094Y327216D01*
X1692084Y328206D01*
X1692620Y329500D01*
Y330900D01*
X1692084Y332194D01*
X1691733Y332545D01*
X1691213Y333375D01*
X1691733Y334205D01*
X1692084Y334556D01*
X1692620Y335850D01*
Y337250D01*
X1692084Y338544D01*
X1691094Y339534D01*
X1689800Y340070D01*
D02*
G37*
G36*
X1616140Y321020D02*
X1614740D01*
X1613446Y320484D01*
X1612456Y319494D01*
X1611920Y318200D01*
Y316800D01*
X1612456Y315506D01*
X1613446Y314516D01*
X1614740Y313980D01*
X1616140D01*
X1617434Y314516D01*
X1618424Y315506D01*
X1618960Y316800D01*
Y318200D01*
X1618424Y319494D01*
X1617434Y320484D01*
X1616140Y321020D01*
D02*
G37*
G36*
X1726630Y318480D02*
X1725230D01*
X1723936Y317944D01*
X1722946Y316954D01*
X1722410Y315660D01*
Y314260D01*
X1722946Y312966D01*
X1723936Y311976D01*
X1725230Y311440D01*
X1726630D01*
X1727924Y311976D01*
X1728914Y312966D01*
X1729450Y314260D01*
Y315660D01*
X1728914Y316954D01*
X1727924Y317944D01*
X1726630Y318480D01*
D02*
G37*
G36*
X1713930D02*
X1712530D01*
X1711236Y317944D01*
X1710246Y316954D01*
X1709710Y315660D01*
Y314260D01*
X1710246Y312966D01*
X1711236Y311976D01*
X1712530Y311440D01*
X1713930D01*
X1715224Y311976D01*
X1716214Y312966D01*
X1716750Y314260D01*
Y315660D01*
X1716214Y316954D01*
X1715224Y317944D01*
X1713930Y318480D01*
D02*
G37*
G36*
X1646620Y304510D02*
X1645220D01*
X1643926Y303974D01*
X1642936Y302984D01*
X1642262Y303358D01*
X1642167Y303452D01*
X1640874Y303988D01*
X1639473D01*
X1638180Y303452D01*
X1637189Y302462D01*
X1636653Y301168D01*
Y299768D01*
X1637189Y298474D01*
X1638180Y297484D01*
X1639473Y296948D01*
X1640874D01*
X1642167Y297484D01*
X1643158Y298474D01*
X1643832Y298100D01*
X1643926Y298006D01*
X1645220Y297470D01*
X1646620D01*
X1647914Y298006D01*
X1648904Y298996D01*
X1649440Y300290D01*
Y301690D01*
X1648904Y302984D01*
X1647914Y303974D01*
X1646620Y304510D01*
D02*
G37*
G36*
X1670750D02*
X1669350D01*
X1668056Y303974D01*
X1667066Y302984D01*
X1666530Y301690D01*
Y300290D01*
X1667066Y298996D01*
X1668056Y298006D01*
X1669350Y297470D01*
X1670750D01*
X1672044Y298006D01*
X1673034Y298996D01*
X1673570Y300290D01*
Y301690D01*
X1673034Y302984D01*
X1672044Y303974D01*
X1670750Y304510D01*
D02*
G37*
G36*
X1656780D02*
X1655380D01*
X1654086Y303974D01*
X1653096Y302984D01*
X1652560Y301690D01*
Y300290D01*
X1653096Y298996D01*
X1654086Y298006D01*
X1655380Y297470D01*
X1656780D01*
X1658074Y298006D01*
X1659064Y298996D01*
X1659600Y300290D01*
Y301690D01*
X1659064Y302984D01*
X1658074Y303974D01*
X1656780Y304510D01*
D02*
G37*
G36*
X1641540Y293080D02*
X1640140D01*
X1638846Y292544D01*
X1637856Y291554D01*
X1637717Y291219D01*
X1636343D01*
X1636204Y291554D01*
X1635214Y292544D01*
X1633920Y293080D01*
X1632520D01*
X1631226Y292544D01*
X1630236Y291554D01*
X1629700Y290260D01*
Y288860D01*
X1630236Y287566D01*
X1631226Y286576D01*
X1632520Y286040D01*
X1633920D01*
X1635214Y286576D01*
X1636204Y287566D01*
X1636343Y287901D01*
X1637717D01*
X1637856Y287566D01*
X1638846Y286576D01*
X1640140Y286040D01*
X1641540D01*
X1642834Y286576D01*
X1643824Y287566D01*
X1644079Y288183D01*
X1644110Y288256D01*
X1645380Y288004D01*
X1645380Y287909D01*
Y287150D01*
X1645916Y285856D01*
X1646906Y284866D01*
X1648200Y284330D01*
X1649600D01*
X1650894Y284866D01*
X1651884Y285856D01*
X1652420Y287150D01*
Y288550D01*
X1651884Y289844D01*
X1650894Y290834D01*
X1649600Y291370D01*
X1648200D01*
X1646906Y290834D01*
X1645916Y289844D01*
X1645660Y289227D01*
X1645630Y289154D01*
X1644360Y289407D01*
X1644360Y289501D01*
Y290260D01*
X1643824Y291554D01*
X1642834Y292544D01*
X1641540Y293080D01*
D02*
G37*
G36*
X1661623Y294113D02*
X1660223D01*
X1658929Y293577D01*
X1657939Y292587D01*
X1657403Y291293D01*
Y289893D01*
X1657939Y288599D01*
X1658929Y287609D01*
X1660223Y287073D01*
X1661623D01*
X1662917Y287609D01*
X1663907Y288599D01*
X1664443Y289893D01*
Y291293D01*
X1663907Y292587D01*
X1662917Y293577D01*
X1661623Y294113D01*
D02*
G37*
G36*
X1693610Y286730D02*
X1692210D01*
X1690916Y286194D01*
X1689926Y285204D01*
X1689390Y283910D01*
Y282510D01*
X1689926Y281216D01*
X1690916Y280226D01*
X1692210Y279690D01*
X1692812D01*
X1692998Y279522D01*
X1693556Y278420D01*
X1693200Y277560D01*
Y276160D01*
X1693736Y274866D01*
X1694726Y273876D01*
X1696020Y273340D01*
X1697420D01*
X1698714Y273876D01*
X1699704Y274866D01*
X1700240Y276160D01*
Y277560D01*
X1699704Y278854D01*
X1698714Y279844D01*
X1697420Y280380D01*
X1696818D01*
X1696632Y280548D01*
X1696074Y281650D01*
X1696430Y282510D01*
Y283910D01*
X1695894Y285204D01*
X1694904Y286194D01*
X1693610Y286730D01*
D02*
G37*
%LPD*%
D47*
X1657350Y275610D02*
D03*
D49*
X1701764Y448056D02*
D03*
Y348488D02*
D03*
X1690434Y485394D02*
D03*
X1700903Y472948D02*
D03*
X1691295Y510286D02*
D03*
X1709467Y425023D02*
D03*
X1717548Y435610D02*
D03*
Y485394D02*
D03*
Y460502D02*
D03*
X1673987Y472948D02*
D03*
X1711325Y448056D02*
D03*
X1736217Y298704D02*
D03*
X1667764Y460502D02*
D03*
X1699605Y497840D02*
D03*
X1617980Y303530D02*
D03*
X1711325Y472948D02*
D03*
X1633220Y331580D02*
D03*
X1711325Y497840D02*
D03*
X1649095Y348488D02*
D03*
X1699605Y423164D02*
D03*
X1691295Y460502D02*
D03*
Y435610D02*
D03*
X1605534Y460502D02*
D03*
X1661541Y398272D02*
D03*
X1586865D02*
D03*
X1661541Y497840D02*
D03*
X1680210Y261366D02*
D03*
X1642872Y510286D02*
D03*
X1736217Y547624D02*
D03*
X1705102Y286258D02*
D03*
X1617980Y410718D02*
D03*
Y485394D02*
D03*
X1586865Y547624D02*
D03*
X1673987Y448056D02*
D03*
X1705102Y460502D02*
D03*
X1599311Y472948D02*
D03*
X1723771Y273812D02*
D03*
X1624203Y497840D02*
D03*
X1630426Y485394D02*
D03*
X1661541Y423164D02*
D03*
X1586865Y497840D02*
D03*
X1723771Y298704D02*
D03*
X1736217Y273812D02*
D03*
X1605534Y385826D02*
D03*
X1586865Y373380D02*
D03*
X1649095Y497840D02*
D03*
X1636649Y348488D02*
D03*
X1667764Y510286D02*
D03*
X1717548Y286258D02*
D03*
X1642872Y435610D02*
D03*
X1611757Y572516D02*
D03*
X1605534Y410718D02*
D03*
X1630426Y460502D02*
D03*
X1605534Y510286D02*
D03*
X1661541Y448056D02*
D03*
X1580642Y510286D02*
D03*
X1593088Y535178D02*
D03*
X1667764Y385826D02*
D03*
X1586865Y522732D02*
D03*
X1580642Y460502D02*
D03*
X1611757Y472948D02*
D03*
X1605534Y560070D02*
D03*
X1599311Y398272D02*
D03*
X1736217Y348488D02*
D03*
X1593088Y460502D02*
D03*
X1692656Y311150D02*
D03*
X1611757Y448056D02*
D03*
X1661541Y348488D02*
D03*
X1605534Y435610D02*
D03*
X1655318Y485394D02*
D03*
X1673987Y572516D02*
D03*
X1736217Y323596D02*
D03*
X1642872Y460502D02*
D03*
X1655318D02*
D03*
X1636649Y472948D02*
D03*
X1593088Y485394D02*
D03*
X1636649Y423164D02*
D03*
X1661541Y472948D02*
D03*
X1673987Y522732D02*
D03*
Y547624D02*
D03*
X1611757Y373380D02*
D03*
X1617980Y261366D02*
D03*
X1580642Y410718D02*
D03*
Y535178D02*
D03*
X1617980D02*
D03*
X1705102Y485394D02*
D03*
X1593088Y360934D02*
D03*
X1673987Y423164D02*
D03*
X1617980Y460502D02*
D03*
X1729994Y286258D02*
D03*
X1655318Y510286D02*
D03*
X1667764Y535178D02*
D03*
X1599311Y497840D02*
D03*
X1593088Y510286D02*
D03*
X1649095Y423164D02*
D03*
X1586865Y472948D02*
D03*
X1599311Y373380D02*
D03*
X1667764Y560070D02*
D03*
X1655318Y385826D02*
D03*
X1624203Y423164D02*
D03*
X1611757Y497840D02*
D03*
X1593088Y410718D02*
D03*
X1624203Y448056D02*
D03*
X1617980Y510286D02*
D03*
X1642872Y485394D02*
D03*
X1667764Y435610D02*
D03*
X1636649Y373380D02*
D03*
Y448056D02*
D03*
X1624203Y472948D02*
D03*
X1705102Y435610D02*
D03*
X1593088Y385826D02*
D03*
X1649095Y373380D02*
D03*
X1630426Y435610D02*
D03*
X1599311Y522732D02*
D03*
X1655318Y261366D02*
D03*
X1611757Y522732D02*
D03*
X1617980Y336042D02*
D03*
X1667764Y485394D02*
D03*
X1580642Y435610D02*
D03*
X1630426Y261366D02*
D03*
X1636649Y497840D02*
D03*
X1611757Y547624D02*
D03*
X1624203D02*
D03*
X1642872Y261366D02*
D03*
X1593088Y435610D02*
D03*
X1580642Y385826D02*
D03*
X1630426Y510286D02*
D03*
X1673987Y497840D02*
D03*
X1736217Y398272D02*
D03*
X1605534Y485394D02*
D03*
X1599311Y423164D02*
D03*
X1605534Y535178D02*
D03*
X1673987Y348488D02*
D03*
X1736217Y572516D02*
D03*
X1586865Y448056D02*
D03*
X1611757Y423164D02*
D03*
X1649095Y448056D02*
D03*
X1692431Y288960D02*
D03*
X1580642Y485394D02*
D03*
X1649095Y472948D02*
D03*
X1586865Y423164D02*
D03*
X1655318Y435610D02*
D03*
X1667764Y261366D02*
D03*
X1617980Y435610D02*
D03*
X1611757Y398272D02*
D03*
X1599311Y448056D02*
D03*
Y547624D02*
D03*
M02*
